<?xml version="1.0" encoding="UTF-8"?>
<svg xmlns="http://www.w3.org/2000/svg" xmlns:xlink="http://www.w3.org/1999/xlink" width="20pt" height="31pt" viewBox="0 0 20 31" version="1.1">
<g id="surface1">
<path style=" stroke:none;fill-rule:nonzero;fill:rgb(96.470588%,57.254902%,12.54902%);fill-opacity:1;" d="M 20.007812 9.882812 C 20.007812 7.875 19.472656 6.089844 18.476562 4.675781 C 16.789062 2.148438 13.722656 0.65625 10.117188 0.507812 C 6.515625 0.582031 3.523438 2.074219 1.765625 4.601562 C 0.765625 6.015625 0.230469 7.796875 0.230469 9.804688 C 0.230469 17.242188 10.117188 30.183594 10.117188 30.183594 C 10.117188 30.183594 20.007812 17.316406 20.007812 9.882812 Z M 20.007812 9.882812 "/>
<path style=" stroke:none;fill-rule:nonzero;fill:rgb(100%,100%,100%);fill-opacity:1;" d="M 6.132812 5.566406 C 8.433594 3.484375 12.113281 3.558594 14.257812 5.789062 C 16.40625 8.023438 16.328125 11.589844 14.027344 13.671875 C 11.726562 15.753906 8.046875 15.679688 5.902344 13.449219 C 3.679688 11.21875 3.832031 7.648438 6.132812 5.566406 M 11.652344 11.21875 C 12.574219 10.402344 12.574219 8.988281 11.726562 8.097656 C 10.886719 7.203125 9.429688 7.203125 8.507812 8.023438 C 7.589844 8.839844 7.589844 10.253906 8.433594 11.144531 C 9.273438 11.964844 10.734375 12.039062 11.652344 11.21875 "/>
</g>
</svg>
